<?xml version="1.0" ?>
<!-- Uploaded to: SVG Repo, www.svgrepo.com, Generator: SVG Repo Mixer Tools -->
<svg width="800px" height="800px" viewBox="0 0 64 64" id="TwoTone" xmlns="http://www.w3.org/2000/svg">
<title/>
<desc/>
<g data-name="Stroke copy 3" id="Stroke_copy_3">
<path d="M57,11V43.34l-4.73-1.26a32,32,0,0,0-20.13,1.21l-.14.05-.14-.05a32,32,0,0,0-20.13-1.21L7,43.34V11H3V51H24a3,3,0,0,1,3,3H37a3,3,0,0,1,3-3H61V11Z" style="fill:#79bd9a"/>
<polygon points="21 58 17 55 13 58 13 43 21 43 21 58" style="fill:#cff09e"/>
<path d="M11.73,42.08,7,43.34v4l4.73-1.26a32,32,0,0,1,20.13,1.21l.14.05v-4l-.14-.05A32,32,0,0,0,11.73,42.08Z" style="fill:#a8dba8"/>
<path d="M32.14,43.29l-.14.05v4l.14-.05a32,32,0,0,1,20.13-1.21L57,47.34v-4l-4.73-1.26A32,32,0,0,0,32.14,43.29Z" style="fill:#a8dba8"/>
<path d="M21.36,36a10,10,0,0,1-9.63-10v-19L7,8.34v35l4.73-1.26a32,32,0,0,1,20.13,1.21l.14.05v-5l-.14-.05A31.82,31.82,0,0,0,21.36,36Z" style="fill:#cff09e"/>
<path d="M46.17,36.07A10,10,0,0,1,37,26V6.78a31,31,0,0,0-4.86,1.51L32,8.34v35l.14-.05a32,32,0,0,1,20.13-1.21L57,43.34v-5l-4.73-1.26A32.64,32.64,0,0,0,46.17,36.07Z" style="fill:#cff09e"/>
</g>
<g data-name="Stroke Close copy 3" id="Stroke_Close_copy_3">
<path d="M61,10H58V8.34a1,1,0,0,0-.74-1L52.52,6.11A33.28,33.28,0,0,0,32,7.28,33.28,33.28,0,0,0,11.48,6.11L6.74,7.38a1,1,0,0,0-.74,1V10H3a1,1,0,0,0-1,1V51a1,1,0,0,0,1,1h9v6a1,1,0,0,0,.55.89,1,1,0,0,0,1-.09L17,56.25l3.4,2.55a1,1,0,0,0,.6.2.91.91,0,0,0,.45-.11A1,1,0,0,0,22,58V52h2a2,2,0,0,1,2,2,1,1,0,0,0,1,1H37a1,1,0,0,0,1-1,2,2,0,0,1,2-2H61a1,1,0,0,0,1-1V11A1,1,0,0,0,61,10ZM11.48,45.11,8,46V44.11l4-1.06a31.2,31.2,0,0,1,19,1V45.9A33.24,33.24,0,0,0,11.48,45.11ZM33,44a31.2,31.2,0,0,1,19-1l4,1.06V46l-3.48-.93A33.33,33.33,0,0,0,33,45.92Zm19-36,4,1.06V42l-3.48-.93A33.21,33.21,0,0,0,33,41.9V9A31.2,31.2,0,0,1,52,8.05ZM8,9.11l4-1.06A31.2,31.2,0,0,1,31,9V41.9a33.24,33.24,0,0,0-19.52-.79L8,42ZM4,50V12H6V47.34a1,1,0,0,0,.39.8,1,1,0,0,0,.61.2,1.15,1.15,0,0,0,.26,0L12,47.05h0v3Zm16,6-2.4-1.8a1,1,0,0,0-1.2,0L14,56V46.6A30.27,30.27,0,0,1,20,46Zm40-6H40a4,4,0,0,0-3.87,3H27.87A4,4,0,0,0,24,50H22V46.08a30.71,30.71,0,0,1,9.49,2.14l.14.05a1,1,0,0,0,.87-.07v0A31.16,31.16,0,0,1,52,47.05l4.73,1.26a1,1,0,0,0,1.26-1V12h2Z" style="fill:#3b8686"/>
<path d="M14.19,22.56a30.69,30.69,0,0,1,11.62,0l.19,0a1,1,0,0,0,.19-2,32.84,32.84,0,0,0-12.38,0A1,1,0,0,0,13,21.76,1,1,0,0,0,14.19,22.56Z" style="fill:#3b8686"/>
<path d="M14.19,16.56a30.69,30.69,0,0,1,11.62,0l.19,0a1,1,0,0,0,.19-2,32.84,32.84,0,0,0-12.38,0A1,1,0,0,0,13,15.76,1,1,0,0,0,14.19,16.56Z" style="fill:#3b8686"/>
<path d="M38,16.6l.19,0a30.69,30.69,0,0,1,11.62,0,1,1,0,0,0,.38-2,32.84,32.84,0,0,0-12.38,0,1,1,0,0,0,.19,2Z" style="fill:#3b8686"/>
<path d="M38,22.6l.19,0a30.69,30.69,0,0,1,11.62,0,1,1,0,0,0,.38-2,32.84,32.84,0,0,0-12.38,0,1,1,0,0,0,.19,2Z" style="fill:#3b8686"/>
<path d="M38,34.6l.19,0a30.69,30.69,0,0,1,11.62,0,1,1,0,0,0,.38-2,32.84,32.84,0,0,0-12.38,0,1,1,0,0,0,.19,2Z" style="fill:#3b8686"/>
<path d="M38,28.6l.19,0a30.69,30.69,0,0,1,11.62,0,1,1,0,0,0,.38-2,32.84,32.84,0,0,0-12.38,0,1,1,0,0,0,.19,2Z" style="fill:#3b8686"/>
<path d="M14.19,28.56a30.69,30.69,0,0,1,11.62,0l.19,0a1,1,0,0,0,.19-2,32.84,32.84,0,0,0-12.38,0A1,1,0,0,0,13,27.76,1,1,0,0,0,14.19,28.56Z" style="fill:#3b8686"/>
<path d="M14.19,34.56a30.69,30.69,0,0,1,11.62,0l.19,0a1,1,0,0,0,.19-2,32.84,32.84,0,0,0-12.38,0A1,1,0,0,0,13,33.76,1,1,0,0,0,14.19,34.56Z" style="fill:#3b8686"/>
</g>
</svg>